<mxfile host="Electron" modified="2024-01-13T22:28:25.353Z" agent="Mozilla/5.0 (Windows NT 10.0; Win64; x64) AppleWebKit/537.36 (KHTML, like Gecko) draw.io/22.1.16 Chrome/120.0.6099.109 Electron/28.1.0 Safari/537.36" etag="cqVVnC5-IXzPcWM6DmOo" version="22.1.16" type="device">
  <diagram name="Seite-1" id="sJSuZizR5m4WJIa6Y1X_">
    <mxGraphModel dx="1098" dy="988" grid="1" gridSize="10" guides="1" tooltips="1" connect="1" arrows="1" fold="1" page="1" pageScale="1" pageWidth="827" pageHeight="1169" math="0" shadow="0">
      <root>
        <mxCell id="0" />
        <mxCell id="1" parent="0" />
        <mxCell id="h0UpDDoDqKxpgdb2_4xz-1" value="Core" style="swimlane;whiteSpace=wrap;html=1;" vertex="1" parent="1">
          <mxGeometry x="100" y="180" width="430" height="380" as="geometry" />
        </mxCell>
        <mxCell id="h0UpDDoDqKxpgdb2_4xz-2" value="Server" style="rounded=0;whiteSpace=wrap;html=1;" vertex="1" parent="h0UpDDoDqKxpgdb2_4xz-1">
          <mxGeometry x="30" y="50" width="120" height="60" as="geometry" />
        </mxCell>
        <mxCell id="h0UpDDoDqKxpgdb2_4xz-5" value="Logging" style="rounded=0;whiteSpace=wrap;html=1;" vertex="1" parent="h0UpDDoDqKxpgdb2_4xz-1">
          <mxGeometry x="30" y="130" width="120" height="60" as="geometry" />
        </mxCell>
        <mxCell id="h0UpDDoDqKxpgdb2_4xz-3" value="Netconf" style="rounded=0;whiteSpace=wrap;html=1;" vertex="1" parent="h0UpDDoDqKxpgdb2_4xz-1">
          <mxGeometry x="30" y="210" width="120" height="60" as="geometry" />
        </mxCell>
        <mxCell id="h0UpDDoDqKxpgdb2_4xz-8" value="Router" style="swimlane;whiteSpace=wrap;html=1;" vertex="1" parent="h0UpDDoDqKxpgdb2_4xz-1">
          <mxGeometry x="180" y="50" width="220" height="300" as="geometry" />
        </mxCell>
        <mxCell id="h0UpDDoDqKxpgdb2_4xz-7" value="SubscriptionsManager" style="rounded=0;whiteSpace=wrap;html=1;" vertex="1" parent="h0UpDDoDqKxpgdb2_4xz-8">
          <mxGeometry x="20" y="50" width="180" height="60" as="geometry" />
        </mxCell>
        <mxCell id="h0UpDDoDqKxpgdb2_4xz-10" value="Engine" style="rounded=0;whiteSpace=wrap;html=1;" vertex="1" parent="h0UpDDoDqKxpgdb2_4xz-8">
          <mxGeometry x="20" y="130" width="180" height="60" as="geometry" />
        </mxCell>
        <mxCell id="h0UpDDoDqKxpgdb2_4xz-4" value="ClientConnectionProtocol" style="rounded=0;whiteSpace=wrap;html=1;" vertex="1" parent="h0UpDDoDqKxpgdb2_4xz-8">
          <mxGeometry x="20" y="210" width="180" height="60" as="geometry" />
        </mxCell>
        <mxCell id="h0UpDDoDqKxpgdb2_4xz-13" value="ClientProcess" style="rounded=0;whiteSpace=wrap;html=1;" vertex="1" parent="h0UpDDoDqKxpgdb2_4xz-1">
          <mxGeometry x="30" y="290" width="120" height="60" as="geometry" />
        </mxCell>
      </root>
    </mxGraphModel>
  </diagram>
</mxfile>
